<?xml version="1.0" encoding="UTF-8" standalone="no"?>
<!-- Created with Inkscape (http://www.inkscape.org/) -->

<svg
   width="170.28091mm"
   height="112.65943mm"
   viewBox="0 0 170.28091 112.65943"
   version="1.1"
   id="svg1"
   inkscape:version="1.3.2 (091e20e, 2023-11-25, custom)"
   sodipodi:docname="model_home_logo_bl.svg"
   xmlns:inkscape="http://www.inkscape.org/namespaces/inkscape"
   xmlns:sodipodi="http://sodipodi.sourceforge.net/DTD/sodipodi-0.dtd"
   xmlns="http://www.w3.org/2000/svg"
   xmlns:svg="http://www.w3.org/2000/svg">
  <sodipodi:namedview
     id="namedview1"
     pagecolor="#ffffff"
     bordercolor="#666666"
     borderopacity="1.0"
     inkscape:showpageshadow="2"
     inkscape:pageopacity="0.0"
     inkscape:pagecheckerboard="0"
     inkscape:deskcolor="#d1d1d1"
     inkscape:document-units="mm"
     inkscape:zoom="0.99150695"
     inkscape:cx="218.85878"
     inkscape:cy="116.48935"
     inkscape:window-width="1920"
     inkscape:window-height="1001"
     inkscape:window-x="2391"
     inkscape:window-y="-9"
     inkscape:window-maximized="1"
     inkscape:current-layer="layer1" />
  <defs
     id="defs1">
    <rect
       x="74.882187"
       y="310.22623"
       width="600.48254"
       height="335.90012"
       id="rect5" />
    <clipPath
       clipPathUnits="userSpaceOnUse"
       id="clipPath78">
      <path
         id="path79"
         style="fill:#ff0000;fill-opacity:1;fill-rule:nonzero;stroke:none;stroke-width:0.264583"
         d="m 58.530076,22.49506 v 29.455051 h 16.151985 l -1.262454,-0.46509 c 0.03602,-0.100158 0.09289,-0.190756 0.161229,-0.271817 0.0409,-0.04767 0.08792,-0.0897 0.137462,-0.128159 0.02484,-0.01929 0.051,-0.03639 0.07751,-0.05323 0.0021,-0.0016 0.03185,-0.02024 0.04186,-0.02635 0.02833,-0.01709 0.05722,-0.03227 0.08682,-0.04703 0.02993,-0.01484 0.06102,-0.0283 0.09198,-0.04082 0.01714,-0.0068 0.03446,-0.01304 0.05168,-0.01963 -0.01818,0.0071 0.0044,-0.0027 0.01138,-0.0057 0.01537,-0.0064 0.03065,-0.01262 0.04599,-0.01913 0.01148,-0.005 0.02268,-0.0104 0.03411,-0.01551 0.01312,-0.0057 0.02633,-0.01148 0.03927,-0.01757 0.01905,-0.009 0.03781,-0.01786 0.05685,-0.02687 0.024,-0.01109 0.04785,-0.02249 0.07183,-0.03359 0.02461,-0.01156 0.04917,-0.02281 0.0739,-0.03411 0.025,-0.01117 0.05003,-0.02223 0.07493,-0.03359 0.02979,-0.01355 0.05995,-0.02664 0.08992,-0.03979 0.01984,-0.009 0.03972,-0.0186 0.05943,-0.02791 0.02765,-0.0127 0.05468,-0.02619 0.08216,-0.03927 0.0281,-0.01328 0.05624,-0.0263 0.08423,-0.03979 0.03629,-0.01749 0.07347,-0.03383 0.110072,-0.05064 0.02705,-0.01236 0.05341,-0.02511 0.0801,-0.03824 0.03688,-0.01852 0.07438,-0.03697 0.11162,-0.05478 0.03818,-0.01794 0.07595,-0.03595 0.114207,-0.05374 0.03803,-0.01786 0.07653,-0.03522 0.114721,-0.05271 0.0405,-0.01839 0.0808,-0.03671 0.121441,-0.05478 0.0353,-0.01564 0.0703,-0.03204 0.105418,-0.04806 0.038,-0.01717 0.07628,-0.03386 0.114205,-0.05116 0.03932,-0.01786 0.07847,-0.03595 0.117824,-0.05374 0.03993,-0.01797 0.07996,-0.03629 0.119888,-0.05426 0.04103,-0.01826 0.08154,-0.03628 0.122473,-0.05478 0.03994,-0.01812 0.0801,-0.03685 0.119888,-0.05529 0.04247,-0.01966 0.08472,-0.03962 0.127124,-0.05943 0.04342,-0.02027 0.08682,-0.04014 0.130225,-0.06046 0.04495,-0.02109 0.09033,-0.04168 0.135393,-0.06253 0.04176,-0.01939 0.0834,-0.03928 0.125058,-0.05891 0.04153,-0.01937 0.08269,-0.03913 0.124023,-0.05891 0.042,-0.02003 0.08416,-0.03977 0.12609,-0.05994 0.04105,-0.01974 0.08209,-0.03936 0.122989,-0.05943 0.04123,-0.02027 0.08197,-0.04134 0.122992,-0.06201 0.04244,-0.02135 0.08481,-0.04247 0.127124,-0.06408 0.045,-0.02307 0.09072,-0.04602 0.135909,-0.06873 0.04492,-0.02236 0.08948,-0.04474 0.134358,-0.06718 0.04671,-0.02305 0.0934,-0.04607 0.140044,-0.06925 0.04366,-0.02172 0.08731,-0.04396 0.130741,-0.06615 0.04353,-0.02252 0.08675,-0.04507 0.130225,-0.0677 0.04703,-0.02439 0.0944,-0.04825 0.141592,-0.07235 0.03968,-0.02013 0.07921,-0.04034 0.118856,-0.06046 V 22.49506 Z M 78.21673,50.795141 c -0.01569,0.0079 -0.03128,0.01588 -0.04702,0.02379 -0.02588,0.01299 -0.05168,0.02617 -0.07752,0.03927 0.04151,-1.19e-4 0.08302,-5.3e-4 0.124539,-5.3e-4 z" />
    </clipPath>
  </defs>
  <g
     inkscape:label="Слой 1"
     inkscape:groupmode="layer"
     id="layer1"
     transform="translate(-18.429165,-14.952368)">
    <g
       id="g80">
      <path
         style="fill:none;stroke:#000000;stroke-width:3.5;stroke-linecap:butt;stroke-linejoin:miter;stroke-dasharray:none;stroke-opacity:1"
         d="M 24.907242,72.834815 116.61118,28.303684 143.78272,44.53113"
         id="path2" />
      <path
         style="fill:none;stroke:#000000;stroke-width:3.46547;stroke-linecap:butt;stroke-linejoin:miter;stroke-dasharray:none;stroke-opacity:1"
         d="M 54.562176,58.09158 V 17.877119 l 15.850063,3.813333"
         id="path4" />
      <path
         style="fill:none;stroke:#000000;stroke-width:3.54551;stroke-linecap:butt;stroke-linejoin:miter;stroke-dasharray:none;stroke-opacity:1"
         d="m 60.302585,33.109106 v -8.390435 l 16.117362,3.683605 -0.396596,23.518058"
         id="path5"
         clip-path="url(#clipPath78)" />
      <text
         xml:space="preserve"
         transform="matrix(0.26458333,0,0,0.26458333,6.0381195,0.37738247)"
         id="text5"
         style="font-size:69.3333px;line-height:1.25;font-family:sans-serif;white-space:pre;shape-inside:url(#rect5);display:inline"><tspan
           x="74.882812"
           y="373.31121"
           id="tspan6"><tspan
             style="font-style:italic;font-weight:bold;font-family:Rubik;-inkscape-font-specification:'Rubik Bold Italic'"
             id="tspan5">ОБРАЗЦОВ ДОМ   
</tspan></tspan><tspan
           x="74.882812"
           y="461.06252"
           id="tspan8"><tspan
             style="font-style:italic;font-weight:bold;font-family:Rubik;-inkscape-font-specification:'Rubik Bold Italic'"
             id="tspan7">                         2023</tspan></tspan></text>
      <path
         style="fill:none;stroke:#000000;stroke-width:3.5;stroke-linecap:butt;stroke-linejoin:miter;stroke-dasharray:none;stroke-opacity:1"
         d="m 24.471168,126.60354 157.616422,0.0165"
         id="path6" />
      <path
         style="fill:none;stroke:#000000;stroke-width:3.5;stroke-linecap:butt;stroke-linejoin:miter;stroke-dasharray:none;stroke-opacity:1"
         d="m 103.60218,46.584208 13.29055,-7.596965 65.31354,39.584191"
         id="path9" />
      <g
         id="g38"
         transform="translate(15.377859,-84.213973)"
         style="stroke-width:2;stroke-dasharray:none">
        <g
           id="g12"
           transform="translate(0,-0.18869123)"
           style="stroke-width:2;stroke-dasharray:none">
          <g
             id="g7"
             style="stroke-width:4.8101;stroke-dasharray:none"
             transform="matrix(0.39161604,-0.14054267,0.1407878,0.39093417,22.556563,84.58124)">
            <path
               style="fill:none;stroke:#000000;stroke-width:4.8101;stroke-linecap:butt;stroke-linejoin:miter;stroke-dasharray:none;stroke-opacity:1"
               d="M 83.257106,182.12492 69.781197,176.92135"
               id="path1" />
            <path
               style="fill:none;stroke:#000000;stroke-width:4.8101;stroke-linecap:butt;stroke-linejoin:miter;stroke-dasharray:none;stroke-opacity:1"
               d="M 89.661499,163.44544 76.18559,158.24187"
               id="path3" />
            <path
               style="fill:none;stroke:#000000;stroke-width:4.8101;stroke-linecap:butt;stroke-linejoin:miter;stroke-dasharray:none;stroke-opacity:1"
               d="M 69.781197,176.92135 76.18559,158.24187"
               id="path7" />
          </g>
          <g
             id="g11"
             transform="matrix(-0.39161604,0.14054267,-0.1407878,-0.39093417,135.31972,197.83357)"
             style="stroke-width:4.8101;stroke-dasharray:none">
            <path
               style="fill:none;stroke:#000000;stroke-width:4.8101;stroke-linecap:butt;stroke-linejoin:miter;stroke-dasharray:none;stroke-opacity:1"
               d="M 83.257106,182.12492 69.781197,176.92135"
               id="path8" />
            <path
               style="fill:none;stroke:#000000;stroke-width:4.8101;stroke-linecap:butt;stroke-linejoin:miter;stroke-dasharray:none;stroke-opacity:1"
               d="M 89.661499,163.44544 76.18559,158.24187"
               id="path10" />
            <path
               style="fill:none;stroke:#000000;stroke-width:4.8101;stroke-linecap:butt;stroke-linejoin:miter;stroke-dasharray:none;stroke-opacity:1"
               d="M 69.781197,176.92135 76.18559,158.24187"
               id="path11" />
          </g>
        </g>
        <g
           id="g25"
           transform="translate(16.416137,-0.18869123)"
           style="stroke-width:2;stroke-dasharray:none">
          <g
             id="g15"
             style="stroke-width:4.8101;stroke-dasharray:none"
             transform="matrix(0.39161604,-0.14054267,0.1407878,0.39093417,22.556563,84.58124)">
            <path
               style="fill:none;stroke:#000000;stroke-width:4.8101;stroke-linecap:butt;stroke-linejoin:miter;stroke-dasharray:none;stroke-opacity:1"
               d="M 83.257106,182.12492 69.781197,176.92135"
               id="path12" />
            <path
               style="fill:none;stroke:#000000;stroke-width:4.8101;stroke-linecap:butt;stroke-linejoin:miter;stroke-dasharray:none;stroke-opacity:1"
               d="M 89.661499,163.44544 76.18559,158.24187"
               id="path13" />
            <path
               style="fill:none;stroke:#000000;stroke-width:4.8101;stroke-linecap:butt;stroke-linejoin:miter;stroke-dasharray:none;stroke-opacity:1"
               d="M 69.781197,176.92135 76.18559,158.24187"
               id="path15" />
          </g>
          <g
             id="g24"
             transform="matrix(-0.39161604,0.14054267,-0.1407878,-0.39093417,135.31972,197.83357)"
             style="stroke-width:4.8101;stroke-dasharray:none">
            <path
               style="fill:none;stroke:#000000;stroke-width:4.8101;stroke-linecap:butt;stroke-linejoin:miter;stroke-dasharray:none;stroke-opacity:1"
               d="M 83.257106,182.12492 69.781197,176.92135"
               id="path16" />
            <path
               style="fill:none;stroke:#000000;stroke-width:4.8101;stroke-linecap:butt;stroke-linejoin:miter;stroke-dasharray:none;stroke-opacity:1"
               d="M 89.661499,163.44544 76.18559,158.24187"
               id="path17" />
            <path
               style="fill:none;stroke:#000000;stroke-width:4.8101;stroke-linecap:butt;stroke-linejoin:miter;stroke-dasharray:none;stroke-opacity:1"
               d="M 69.781197,176.92135 76.18559,158.24187"
               id="path24" />
          </g>
        </g>
        <g
           id="g31"
           transform="translate(16.416137,16.1331)"
           style="stroke-width:2;stroke-dasharray:none">
          <g
             id="g27"
             style="stroke-width:4.8101;stroke-dasharray:none"
             transform="matrix(0.39161604,-0.14054267,0.1407878,0.39093417,22.556563,84.58124)">
            <path
               style="fill:none;stroke:#000000;stroke-width:4.8101;stroke-linecap:butt;stroke-linejoin:miter;stroke-dasharray:none;stroke-opacity:1"
               d="M 83.257106,182.12492 69.781197,176.92135"
               id="path25" />
            <path
               style="fill:none;stroke:#000000;stroke-width:4.8101;stroke-linecap:butt;stroke-linejoin:miter;stroke-dasharray:none;stroke-opacity:1"
               d="M 89.661499,163.44544 76.18559,158.24187"
               id="path26" />
            <path
               style="fill:none;stroke:#000000;stroke-width:4.8101;stroke-linecap:butt;stroke-linejoin:miter;stroke-dasharray:none;stroke-opacity:1"
               d="M 69.781197,176.92135 76.18559,158.24187"
               id="path27" />
          </g>
          <g
             id="g30"
             transform="matrix(-0.39161604,0.14054267,-0.1407878,-0.39093417,135.31972,197.83357)"
             style="stroke-width:4.8101;stroke-dasharray:none">
            <path
               style="fill:none;stroke:#000000;stroke-width:4.8101;stroke-linecap:butt;stroke-linejoin:miter;stroke-dasharray:none;stroke-opacity:1"
               d="M 83.257106,182.12492 69.781197,176.92135"
               id="path28" />
            <path
               style="fill:none;stroke:#000000;stroke-width:4.8101;stroke-linecap:butt;stroke-linejoin:miter;stroke-dasharray:none;stroke-opacity:1"
               d="M 89.661499,163.44544 76.18559,158.24187"
               id="path29" />
            <path
               style="fill:none;stroke:#000000;stroke-width:4.8101;stroke-linecap:butt;stroke-linejoin:miter;stroke-dasharray:none;stroke-opacity:1"
               d="M 69.781197,176.92135 76.18559,158.24187"
               id="path30" />
          </g>
        </g>
        <g
           id="g37"
           transform="translate(0,16.1331)"
           style="stroke-width:2;stroke-dasharray:none">
          <g
             id="g33"
             style="stroke-width:4.8101;stroke-dasharray:none"
             transform="matrix(0.39161604,-0.14054267,0.1407878,0.39093417,22.556563,84.58124)">
            <path
               style="fill:none;stroke:#000000;stroke-width:4.8101;stroke-linecap:butt;stroke-linejoin:miter;stroke-dasharray:none;stroke-opacity:1"
               d="M 83.257106,182.12492 69.781197,176.92135"
               id="path31" />
            <path
               style="fill:none;stroke:#000000;stroke-width:4.8101;stroke-linecap:butt;stroke-linejoin:miter;stroke-dasharray:none;stroke-opacity:1"
               d="M 89.661499,163.44544 76.18559,158.24187"
               id="path32" />
            <path
               style="fill:none;stroke:#000000;stroke-width:4.8101;stroke-linecap:butt;stroke-linejoin:miter;stroke-dasharray:none;stroke-opacity:1"
               d="M 69.781197,176.92135 76.18559,158.24187"
               id="path33" />
          </g>
          <g
             id="g36"
             transform="matrix(-0.39161604,0.14054267,-0.1407878,-0.39093417,135.31972,197.83357)"
             style="stroke-width:4.8101;stroke-dasharray:none">
            <path
               style="fill:none;stroke:#000000;stroke-width:4.8101;stroke-linecap:butt;stroke-linejoin:miter;stroke-dasharray:none;stroke-opacity:1"
               d="M 83.257106,182.12492 69.781197,176.92135"
               id="path34" />
            <path
               style="fill:none;stroke:#000000;stroke-width:4.8101;stroke-linecap:butt;stroke-linejoin:miter;stroke-dasharray:none;stroke-opacity:1"
               d="M 89.661499,163.44544 76.18559,158.24187"
               id="path35" />
            <path
               style="fill:none;stroke:#000000;stroke-width:4.8101;stroke-linecap:butt;stroke-linejoin:miter;stroke-dasharray:none;stroke-opacity:1"
               d="M 69.781197,176.92135 76.18559,158.24187"
               id="path36" />
          </g>
        </g>
      </g>
    </g>
  </g>
</svg>
